Coordinates
version=1
nRows=5
nColumns=40
inDegrees=yes

Units are S.I. units (second, meters, Newtons, ...)
Angles are in degrees.

endheader
time	pelvis_tilt	pelvis_list	pelvis_rotation	pelvis_tx	pelvis_ty	pelvis_tz	hip_flexion_r	hip_adduction_r	hip_rotation_r	knee_angle_r	knee_angle_r_beta	ankle_angle_r	subtalar_angle_r	mtp_angle_r	hip_flexion_l	hip_adduction_l	hip_rotation_l	knee_angle_l	knee_angle_l_beta	ankle_angle_l	subtalar_angle_l	mtp_angle_l	lumbar_extension	lumbar_bending	lumbar_rotation	arm_flex_r	arm_add_r	arm_rot_r	elbow_flex_r	pro_sup_r	wrist_flex_r	wrist_dev_r	arm_flex_l	arm_add_l	arm_rot_l	elbow_flex_l	pro_sup_l	wrist_flex_l	wrist_dev_l
     58.71000000	     -5.31255135	     -5.26694206	      6.81776917	      0.98395905	      0.91794972	      0.44587260	     -1.06935735	      5.46669186	    -18.96450162	      8.38248715	      8.38248715	     16.56873720	      3.39224773	     -4.59963005	     33.90801850	     -4.74900356	     -3.24856774	     19.85751654	     19.85751654	      5.94441634	     -8.38134197	     11.35080995	     -7.51290387	      6.74351335	      4.51428203	     38.43104629	    -15.95405943	     -2.25573483	     97.08998663	     44.20452527	      0.00000000	      0.00000000	     -8.49479395	     -7.16666356	      6.32403879	     25.79805338	     45.02437299	      0.00000000	      0.00000000
     58.72257143	     -5.29522215	     -5.27598109	      6.64171204	      0.98574655	      0.91678034	      0.44440562	     -1.60605367	      5.34313798	    -18.96041363	      8.81400802	      8.81400802	     18.04799294	      4.02352583	     -1.73781815	     33.18031750	     -4.63249244	     -3.09568234	     19.97945102	     19.97945102	      3.18408273	    -10.35310294	      6.87201533	     -7.35018625	      6.70729896	      4.99656312	     37.26316043	    -16.05004521	     -2.26302497	     98.27640711	     44.24976058	      0.00000000	      0.00000000	     -8.37221989	     -7.25454934	      6.12260572	     26.34359267	     45.11387748	      0.00000000	      0.00000000
     58.73514286	     -5.29919757	     -5.18123502	      6.42923413	      0.98751965	      0.91576985	      0.44292491	     -2.19991733	      5.14210840	    -18.71547265	      8.97972135	      8.97972135	     18.38773183	      4.06878974	     -1.79903876	     32.72980424	     -4.55733705	     -3.32886742	     20.74210590	     20.74210590	      2.68695053	    -10.93481647	      6.92025541	     -7.13478604	      6.54467544	      5.08019632	     36.37903492	    -15.61023178	     -1.93716637	     98.09357216	     44.24597306	      0.00000000	      0.00000000	     -8.22978877	     -7.32650385	      6.09645700	     26.41564211	     45.12325028	      0.00000000	      0.00000000
     58.74771429	     -5.32943494	     -5.09904844	      6.21506106	      0.98925702	      0.91487760	      0.44132544	     -2.70014593	      4.91337488	    -18.49481589	      9.26375459	      9.26375459	     18.70364011	      4.09019943	     -1.81882557	     32.33194296	     -4.45253208	     -3.33701590	     21.48678192	     21.48678192	      2.26815445	    -11.66366748	      6.88792595	     -6.93191756	      6.41966485	      5.16963614	     35.33204200	    -15.25111597	     -1.57513383	     97.80828198	     44.24442629	      0.00000000	      0.00000000	     -8.03722734	     -7.40625312	      6.03572439	     26.57976740	     45.13913234	      0.00000000	      0.00000000
     58.76028571	     -5.46609821	     -5.02008439	      5.99626483	      0.99074244	      0.91411728	      0.43949815	     -2.85882710	      4.57769594	    -18.29280431	      9.95868990	      9.95868990	     19.07641045	      4.03719373	     -1.68475958	     32.04308784	     -4.23627740	     -2.96287095	     22.08051677	     22.08051677	      1.71330296	    -12.93845196	      6.70983719	     -6.63586376	      6.30012857	      5.31611548	     34.17998041	    -15.18534836	     -1.12263973	     97.22704943	     44.25844384	      0.00000000	      0.00000000	     -7.76616292	     -7.45513425	      5.83316195	     27.04300676	     45.18345131	      0.00000000	      0.00000000
